<?xml version="1.0" encoding="UTF-8" standalone="no"?>
<!-- Created with Inkscape (http://www.inkscape.org/) -->

<svg
   xmlns:dc="http://purl.org/dc/elements/1.1/"
   xmlns:cc="http://creativecommons.org/ns#"
   xmlns:rdf="http://www.w3.org/1999/02/22-rdf-syntax-ns#"
   xmlns:svg="http://www.w3.org/2000/svg"
   xmlns="http://www.w3.org/2000/svg"
   xmlns:sodipodi="http://sodipodi.sourceforge.net/DTD/sodipodi-0.dtd"
   xmlns:inkscape="http://www.inkscape.org/namespaces/inkscape"
   width="210mm"
   height="297mm"
   viewBox="0 0 744.09448819 1052.3622047"
   id="svg2"
   version="1.1"
   inkscape:version="0.91 r13725"
   sodipodi:docname="chat.svg">
  <defs
     id="defs4" />
  <sodipodi:namedview
     id="base"
     pagecolor="#ffffff"
     bordercolor="#666666"
     borderopacity="1.0"
     inkscape:pageopacity="0.0"
     inkscape:pageshadow="2"
     inkscape:zoom="0.45254834"
     inkscape:cx="465.89458"
     inkscape:cy="363.67795"
     inkscape:document-units="px"
     inkscape:current-layer="layer1"
     showgrid="false"
     inkscape:window-width="1366"
     inkscape:window-height="715"
     inkscape:window-x="0"
     inkscape:window-y="27"
     inkscape:window-maximized="1"
     showborder="true" />
  <metadata
     id="metadata7">
    <rdf:RDF>
      <cc:Work
         rdf:about="">
        <dc:format>image/svg+xml</dc:format>
        <dc:type
           rdf:resource="http://purl.org/dc/dcmitype/StillImage" />
        <dc:title></dc:title>
      </cc:Work>
    </rdf:RDF>
  </metadata>
  <g
     inkscape:label="Capa 1"
     inkscape:groupmode="layer"
     id="layer1">
    <path
       inkscape:connector-curvature="0"
       id="path3396"
       d="M 362.69737,254.43233 A 325.48651,198.84153 0 0 0 37.195467,453.26126 325.48651,198.84153 0 0 0 362.69737,652.11215 a 325.48651,198.84153 0 0 0 57.19877,-3.26781 c 63.75614,37.30099 149.92428,51.77625 241.53791,63.73021 -40.22029,-34.08166 -68.57324,-70.34796 -87.69769,-107.98437 A 325.48651,198.84153 0 0 0 688.17748,453.26126 325.48651,198.84153 0 0 0 362.69737,254.43233 Z M 233.71205,461.91732 a 40.447727,40.322367 0 0 1 40.44084,40.31551 40.447727,40.322367 0 0 1 -40.44084,40.33722 40.447727,40.322367 0 0 1 -40.46238,-40.33722 40.447727,40.322367 0 0 1 40.46238,-40.31551 z m 128.98532,0 a 40.447724,40.322364 0 0 1 40.44083,40.31551 40.447724,40.322364 0 0 1 -40.44083,40.33722 40.447724,40.322364 0 0 1 -40.46263,-40.33722 40.447724,40.322364 0 0 1 40.46263,-40.31551 z m 128.96328,0 a 40.447724,40.322364 0 0 1 40.46263,40.31551 40.447724,40.322364 0 0 1 -40.46263,40.33722 40.447724,40.322364 0 0 1 -40.44083,-40.33722 40.447724,40.322364 0 0 1 40.44083,-40.31551 z"
       style="fill:#ffffff;fill-opacity:1;stroke:#aa0000;stroke-width:35.89858627;stroke-miterlimit:4;stroke-dasharray:none;stroke-opacity:0" />
  </g>
</svg>
