<?xml version="1.0" encoding="UTF-8" standalone="no"?>
<!-- Created with Inkscape (http://www.inkscape.org/) -->

<svg
   xmlns:dc="http://purl.org/dc/elements/1.1/"
   xmlns:cc="http://creativecommons.org/ns#"
   xmlns:rdf="http://www.w3.org/1999/02/22-rdf-syntax-ns#"
   xmlns:svg="http://www.w3.org/2000/svg"
   xmlns="http://www.w3.org/2000/svg"
   xmlns:sodipodi="http://sodipodi.sourceforge.net/DTD/sodipodi-0.dtd"
   xmlns:inkscape="http://www.inkscape.org/namespaces/inkscape"
   width="210mm"
   height="297mm"
   viewBox="0 0 744.09448819 1052.3622047"
   id="svg2"
   version="1.1"
   inkscape:version="0.91 r13725"
   sodipodi:docname="league.svg">
  <defs
     id="defs4" />
  <sodipodi:namedview
     id="base"
     pagecolor="#ffffff"
     bordercolor="#666666"
     borderopacity="1.0"
     inkscape:pageopacity="0.0"
     inkscape:pageshadow="2"
     inkscape:zoom="0.24748737"
     inkscape:cx="-1087.8528"
     inkscape:cy="560.19922"
     inkscape:document-units="px"
     inkscape:current-layer="layer1"
     showgrid="false"
     inkscape:window-width="1366"
     inkscape:window-height="715"
     inkscape:window-x="0"
     inkscape:window-y="27"
     inkscape:window-maximized="1" />
  <metadata
     id="metadata7">
    <rdf:RDF>
      <cc:Work
         rdf:about="">
        <dc:format>image/svg+xml</dc:format>
        <dc:type
           rdf:resource="http://purl.org/dc/dcmitype/StillImage" />
        <dc:title />
      </cc:Work>
    </rdf:RDF>
  </metadata>
  <g
     inkscape:label="Capa 1"
     inkscape:groupmode="layer"
     id="layer1">
    <g
       id="g3389"
       transform="matrix(1.6794375,0,0,1.6046651,-227.65684,-566.26147)"
       style="fill:#ffffff">
      <path
         inkscape:connector-curvature="0"
         id="path3380"
         d="m 250.8517,471.91501 c -11.20344,140.70972 25.57994,257.39742 117.7075,254.14525 92.20054,3.33966 129.01534,-113.37937 117.80788,-254.13971 l -108.49419,0 0,-0.006 -127.02119,0 z"
         style="fill:#ffffff;fill-opacity:1;stroke:#aa0000;stroke-width:3.97884536;stroke-miterlimit:4;stroke-dasharray:none;stroke-opacity:0" />
      <path
         inkscape:connector-curvature="0"
         id="rect3383"
         d="m 326.71484,691.96289 0,11.9668 83.78906,0 0,-11.9668 -83.78906,0 z m 0,37.95703 0,44.16797 c 12.4321,-0.74409 26.34552,-1.11994 41.84375,-1.04883 15.53942,-0.0732 29.48571,0.30305 41.94531,1.04883 l 0,-44.16406 c -12.43269,5.80379 -26.39835,8.66665 -41.94531,8.10351 -15.50688,0.5474 -29.43775,-2.31608 -41.84375,-8.10742 z"
         style="fill:#ffffff;fill-opacity:1;stroke:#aa0000;stroke-width:2.9863646;stroke-miterlimit:4;stroke-dasharray:none;stroke-opacity:0" />
      <path
         id="path3380-0"
         d="m 249.6353,816.54537 c 22.83969,-21.7094 25.84418,-33.80173 118.92341,-33.37465 93.15295,-0.43856 99.42044,10.73465 119.02481,33.37392 l -109.61492,0 0,7.5e-4 z"
         style="fill:#ffffff;fill-opacity:1;stroke:#aa0000;stroke-width:1.44929242;stroke-miterlimit:4;stroke-dasharray:none;stroke-opacity:0"
         inkscape:connector-curvature="0"
         sodipodi:nodetypes="cccccc" />
      <path
         id="path3416-4"
         d="m 237.45508,480.75391 c -36.50927,-0.75533 -69.07414,26.51188 -75.49219,65.39257 -7.08212,42.90241 20.35313,83.7002 61.27734,91.125 29.07654,5.23247 30.08824,16.75639 27.73438,40.16993 0.12736,13.83907 15.07987,15.40613 21.44727,5.57031 -11.42916,-19.66626 -20.03489,-43.63244 -25.9043,-70.75391 -4.44748,-2.2676 -8.79592,-3.66005 -12.52149,-4.33398 -29.28657,-5.31288 -46.18726,-26.87013 -41.11914,-57.57227 4.52773,-27.42678 19.97501,-41.42987 44.09571,-40.32031 0.0568,-9.60471 0.34418,-19.37107 0.85156,-29.26563 -0.12286,-0.003 -0.24638,-0.009 -0.36914,-0.0117 z"
         style="fill:#ffffff;fill-opacity:1;stroke:#aa0000;stroke-width:1.66611123;stroke-miterlimit:4;stroke-dasharray:none;stroke-opacity:0"
         inkscape:connector-curvature="0" />
      <path
         id="path3416-4-9"
         d="m 499.61719,478.84766 c -0.10796,0.002 -0.2162,0.009 -0.32422,0.0117 0.53509,9.89077 0.84695,19.65389 0.93359,29.25976 24.04779,-1.05449 39.45094,12.94763 43.97071,40.32617 5.06812,30.70214 -11.83453,52.2594 -41.1211,57.57227 -3.55487,0.64305 -7.67807,1.94826 -11.91211,4.03515 -5.78553,27.59415 -14.36234,51.99898 -25.82812,72.02149 6.69069,8.74395 20.63871,6.82621 20.76172,-6.53906 -2.35386,-23.41354 -1.34216,-34.93746 27.73437,-40.16993 40.92422,-7.4248 68.35947,-48.22454 61.27735,-91.12695 -6.41806,-38.8807 -38.98293,-66.14595 -75.49219,-65.39062 z"
         style="fill:#ffffff;fill-opacity:1;stroke:#aa0000;stroke-width:1.66611123;stroke-miterlimit:4;stroke-dasharray:none;stroke-opacity:0"
         inkscape:connector-curvature="0" />
    </g>
  </g>
</svg>
