<?xml version="1.0" encoding="UTF-8" standalone="no"?>
<!-- Created with Inkscape (http://www.inkscape.org/) -->

<svg
   xmlns:dc="http://purl.org/dc/elements/1.1/"
   xmlns:cc="http://creativecommons.org/ns#"
   xmlns:rdf="http://www.w3.org/1999/02/22-rdf-syntax-ns#"
   xmlns:svg="http://www.w3.org/2000/svg"
   xmlns="http://www.w3.org/2000/svg"
   xmlns:sodipodi="http://sodipodi.sourceforge.net/DTD/sodipodi-0.dtd"
   xmlns:inkscape="http://www.inkscape.org/namespaces/inkscape"
   width="210mm"
   height="297mm"
   viewBox="0 0 744.09448819 1052.3622047"
   id="svg2"
   version="1.1"
   inkscape:version="0.91 r13725"
   sodipodi:docname="mastery.svg">
  <defs
     id="defs4" />
  <sodipodi:namedview
     id="base"
     pagecolor="#ffffff"
     bordercolor="#666666"
     borderopacity="1.0"
     inkscape:pageopacity="0.0"
     inkscape:pageshadow="2"
     inkscape:zoom="0.35355339"
     inkscape:cx="23.827602"
     inkscape:cy="553.46666"
     inkscape:document-units="px"
     inkscape:current-layer="layer1"
     showgrid="false"
     inkscape:window-width="1366"
     inkscape:window-height="715"
     inkscape:window-x="0"
     inkscape:window-y="27"
     inkscape:window-maximized="1"
     showguides="false" />
  <metadata
     id="metadata7">
    <rdf:RDF>
      <cc:Work
         rdf:about="">
        <dc:format>image/svg+xml</dc:format>
        <dc:type
           rdf:resource="http://purl.org/dc/dcmitype/StillImage" />
        <dc:title />
      </cc:Work>
    </rdf:RDF>
  </metadata>
  <g
     inkscape:label="Capa 1"
     inkscape:groupmode="layer"
     id="layer1">
    <g
       id="g3575"
       transform="matrix(1.9331069,0,0,1.9331069,-188.74587,-307.24736)"
       style="fill:#ffffff">
      <path
         inkscape:connector-curvature="0"
         id="path3461-2"
         d="m 288.35547,388.16944 c -4.30988,-0.76941 -7.91925,1.30253 -10.55547,5.53287 -2.89462,5.33965 -4.89643,3.96838 -8.27151,4.85015 -3.51559,1.14065 -6.69905,4.49465 -6.66018,9.31411 0.0363,4.51061 -5.84422,3.06592 -6.3681,11.22 -0.37803,5.884 4.38624,9.97629 5.18464,12.48176 1.39242,4.36953 -0.89518,10.46921 1.26852,14.14128 3.13796,5.3255 10.26559,4.62218 19.22563,8.54364 4.61991,2.02196 3.54295,4.81802 11.21317,4.38029 3.41379,-0.19483 7.34505,-5.91234 10.32243,-5.64584 4.61551,0.41312 7.66666,2.5604 10.97186,0.0246 2.84915,-2.1859 3.14286,-11.90144 5.19239,-14.45342 2.7846,-3.46727 5.37214,-3.27849 5.86301,-8.49733 0.37196,-3.95465 -6.64503,-8.48324 -5.40292,-15.09667 1.84039,-9.79875 -2.2191,-12.0654 -4.65263,-13.486 -1.96908,-1.14947 -5.09115,-0.84132 -6.75976,-4.58516 -1.61839,-3.63114 -3.78391,-6.58164 -9.37321,-4.84326 -1.93077,0.60051 -3.64353,0.48718 -4.91209,-1.00758 -2.22343,-1.58797 -4.32675,-2.52372 -6.28578,-2.87346 z m 5.44269,11.83718 a 24.579692,23.631223 39.241323 0 1 21.86095,26.95008 24.579692,23.631223 39.241323 0 1 -26.3396,20.66663 24.579692,23.631223 39.241323 0 1 -21.86095,-26.95009 24.579692,23.631223 39.241323 0 1 26.3396,-20.66662 z"
         style="fill:#ffffff;fill-opacity:1;stroke:#aa0000;stroke-width:2.4282546;stroke-miterlimit:4;stroke-dasharray:none;stroke-opacity:0" />
      <path
         sodipodi:nodetypes="ccccscccccccccsscccccccccccc"
         inkscape:connector-curvature="0"
         id="rect3336"
         d="m 368.70898,198.03516 c 15.18154,4.10117 31.06111,11.34828 45.22071,20.89257 -11.59723,-10.92329 -25.72344,-18.96607 -45.22071,-20.89257 z m -42.08593,3.0625 c -5.49473,0.64748 -10.23854,1.86706 -12.28907,7.40039 l -64.75499,174.74044 c 1.0463,0.0221 2.09158,0.0459 3.12695,0.0898 z m -105.1266,241.97723 c -2.02536,0.0661 -4.0486,0.19627 -6.06836,0.37109 l -13.80664,28.37695 z m -75.09385,150.65482 -6.69726,13.76563 c -3.98086,8.18178 3.2213,14.21479 8.53125,21.60351 20.2515,28.17969 43.75191,52.66073 97.7539,42.40235 3.16129,-0.60053 6.37775,-0.78536 9.3711,-1.14063 -0.80629,-8.78242 -6.05029,-17.35712 -13.9961,-25.45898 -19.46293,-10.09364 -64.12717,-24.27599 -84.35546,-24.16993 16.58941,31.22403 56.22388,41.59109 81.00586,40.73438 -4.48555,-10.22293 -42.45122,-20.59367 -59.61133,-27.30859 0.37772,-0.75545 53.9134,11.26517 63.93164,23.38476 2.55035,3.59927 3.86911,6.67013 -3.12891,8.43164 -26.32283,0.66328 -63.44443,-4.12037 -87.78515,-46.11719 -1.0383,-2.6122 0.65773,-2.89668 1.9707,-2.86328 0,0 12.82996,0.88771 13.60937,0.94141 11.74805,0.81198 37.98465,6.46297 65.98633,19.3457 -23.95152,-19.55024 -61.76427,-35.52222 -86.58594,-43.55078 z"
         style="fill:#ffffff;fill-opacity:1;stroke:#aa0000;stroke-width:3.2349999;stroke-miterlimit:4;stroke-dasharray:none;stroke-opacity:0" />
      <path
         id="rect3355"
         d="m 239.78302,390.53375 c -3.97484,0.17815 -10.2691,3.41456 -14.45508,12.31836 l -3.75586,7.98828 c -4.324,9.19736 -7.55294,22.40632 -2.95899,21.81836 10.75332,-1.37626 21.60418,-0.76589 32.22071,1.23437 0.14404,-2.14597 0.19417,-4.27228 -0.35938,-6.14258 -0.83151,-2.80947 -6.04677,-7.54576 -5.48828,-14.04687 0.77395,-9.00926 7.29478,-7.15662 7.35938,-12.1543 0.0554,-4.28539 2.40352,-7.43371 5.36718,-9.08594 -5.46792,-0.9005 -11.17444,-1.56564 -17.16797,-1.92382 -0.24307,-0.0145 -0.49673,-0.0177 -0.76171,-0.006 z m 92.18047,29.65572 c -0.0598,6.3389 6.31438,11.12534 5.85157,15.11133 -0.66877,5.75951 -3.5479,5.43934 -6.73243,9.16015 -2.3439,2.7386 -2.89838,13.48835 -6.125,15.78711 -1.76344,1.25633 -3.44094,1.35714 -5.25781,1.05078 11.01657,6.5392 20.67661,13.65356 28.29297,20.15625 2.9979,2.55954 9.50176,-4.58269 13.9668,-14.08007 l 3.75586,-7.98829 c 4.55689,-9.69275 4.6763,-15.88944 1.16406,-17.93164 -10.46343,-6.08397 -21.76691,-13.88446 -34.91602,-21.26562 z"
         style="fill:#ffffff;fill-opacity:1;stroke:#aa0000;stroke-width:3.80882883;stroke-miterlimit:4;stroke-dasharray:none;stroke-opacity:0"
         inkscape:connector-curvature="0"
         sodipodi:nodetypes="cccscssscccccssscsccsc" />
      <path
         id="rect3336-5"
         d="m 358.48438,184.73242 c -6.07573,-0.0556 -7.22796,-5.29026 -12.78578,-3.95807 l -82.89844,202.94532 c 5.85409,0.5771 8.41019,0.76911 13.90252,1.96177 0.67907,-0.66831 1.38542,-1.59275 2.15234,-2.91796 3.03693,-4.5724 10.21591,-5.98166 15.00178,-4.9442 2.1754,0.47156 4.49821,1.59867 6.93946,3.45312 1.3791,1.71016 3.28513,1.9103 5.45117,1.32812 6.27037,-1.68529 8.61671,1.67411 10.33593,5.76563 1.77259,4.21854 7.4545,4.92776 9.62247,6.28556 2.39474,1.49985 6.20511,3.82074 5.36328,11.98633 13.53962,7.53177 23.29767,14.96335 33.78769,22.37459 l 83.27211,-159.3056 c 3.16244,-51.26328 -47.61445,-84.58524 -90.14453,-84.97461 z M 233.58398,440.65039 133.0293,586.0918 c 16.39215,0.24689 137.38303,41.97931 131.92968,87.625 l 70.50586,-191.42774 c -7.77669,-8.95487 -11.52029,-12.97339 -38.28442,-18.01723 -2.27806,1.65192 -10.16331,3.84466 -12.33643,3.88407 -8.55947,0.15523 -7.47712,-6.00505 -12.57938,-8.44318 -9.89551,-4.7286 -18.03987,-9.01072 -21.41335,-15.04431 -0.46888,-0.8386 -0.72717,-1.78234 -0.86329,-2.78906 -8.22775,-1.71394 -8.01437,-1.0866 -16.40399,-1.22896 z"
         style="fill:#ffffff;fill-opacity:1;stroke:#aa0000;stroke-width:3.2349999;stroke-miterlimit:4;stroke-dasharray:none;stroke-opacity:0"
         inkscape:connector-curvature="0"
         sodipodi:nodetypes="sccccscssscccscccccssscc" />
      <ellipse
         transform="matrix(0.99160982,0.129267,-0.09364294,0.99560585,0,0)"
         ry="20.412674"
         rx="20.746225"
         cy="382.81598"
         cx="330.17725"
         id="path3461-6"
         style="fill:#ffffff;fill-opacity:1;stroke:#aa0000;stroke-width:1.50635993;stroke-miterlimit:4;stroke-dasharray:none;stroke-opacity:0" />
    </g>
    <g
       id="g3533"
       transform="matrix(1,0.16856086,-0.11388382,0.98080365,-232.21754,-89.56747)"
       style="fill:#ffffff" />
  </g>
</svg>
