<?xml version="1.0" encoding="UTF-8" standalone="no"?>
<!-- Created with Inkscape (http://www.inkscape.org/) -->

<svg
   xmlns:dc="http://purl.org/dc/elements/1.1/"
   xmlns:cc="http://creativecommons.org/ns#"
   xmlns:rdf="http://www.w3.org/1999/02/22-rdf-syntax-ns#"
   xmlns:svg="http://www.w3.org/2000/svg"
   xmlns="http://www.w3.org/2000/svg"
   xmlns:sodipodi="http://sodipodi.sourceforge.net/DTD/sodipodi-0.dtd"
   xmlns:inkscape="http://www.inkscape.org/namespaces/inkscape"
   width="210mm"
   height="297mm"
   viewBox="0 0 744.09448819 1052.3622047"
   id="svg2"
   version="1.1"
   inkscape:version="0.91 r13725"
   sodipodi:docname="rune.svg">
  <defs
     id="defs4" />
  <sodipodi:namedview
     id="base"
     pagecolor="#ffffff"
     bordercolor="#666666"
     borderopacity="1.0"
     inkscape:pageopacity="0.0"
     inkscape:pageshadow="2"
     inkscape:zoom="0.49497475"
     inkscape:cx="603.3888"
     inkscape:cy="514.79305"
     inkscape:document-units="px"
     inkscape:current-layer="layer1"
     showgrid="false"
     inkscape:window-width="1366"
     inkscape:window-height="715"
     inkscape:window-x="0"
     inkscape:window-y="27"
     inkscape:window-maximized="1" />
  <metadata
     id="metadata7">
    <rdf:RDF>
      <cc:Work
         rdf:about="">
        <dc:format>image/svg+xml</dc:format>
        <dc:type
           rdf:resource="http://purl.org/dc/dcmitype/StillImage" />
        <dc:title></dc:title>
      </cc:Work>
    </rdf:RDF>
  </metadata>
  <g
     inkscape:label="Capa 1"
     inkscape:groupmode="layer"
     id="layer1">
    <g
       id="g3495"
       transform="matrix(1.5018693,0,0,1.5018693,-197.84514,-308.46276)"
       style="fill:#ffffff">
      <path
         id="path3336-9"
         d="M 379.0957,285.60352 149.44141,417.06055 148.45898,681.67578 377.13281,814.83398 606.78711,683.37695 607.76953,418.76172 379.0957,285.60352 Z M 378.92188,332.55664 567.01953,442.08789 566.21094,659.75 377.30664,767.88281 189.20898,658.35156 190.01758,440.6875 378.92188,332.55664 Z"
         style="fill:#ffffff;fill-opacity:1;stroke:#aa0000;stroke-width:1.85636175;stroke-miterlimit:4;stroke-dasharray:none;stroke-opacity:0"
         inkscape:connector-curvature="0" />
      <path
         sodipodi:nodetypes="cccccccsssssssccscsscccccccccccccccccccccccccccccscccccccccccccccccsscscccccccsc"
         inkscape:connector-curvature="0"
         id="path3336"
         d="M 378.87305,345.63672 201.32031,447.26953 200.56055,651.85352 377.35547,754.80273 554.9082,653.16797 555.66797,448.58594 Z m -44.70554,88.67929 c 3.34619,0.0472 6.7118,1.08267 9.69336,3.15039 l 66.03589,45.79606 c 7.95084,5.51393 9.90698,16.43587 4.43555,24.41602 l -6.35547,9.26953 c -5.47143,7.98015 -16.23666,9.90651 -24.1875,4.39258 l -66.03589,-45.79607 c -7.95084,-5.51393 -9.90706,-16.43592 -4.43555,-24.41601 l 6.35547,-9.26758 c 3.41969,-4.98756 8.91715,-7.62352 14.49414,-7.54492 z m -34.71168,60.99533 c 1.06589,-0.01 2.16752,0.01 3.23828,0.29883 l 68.82691,18.58084 c 8.56652,2.31266 14.36053,10.06708 12.66797,18.77734 l -0.74609,3.83789 c -1.31064,6.74482 -6.63241,11.63629 -13.00977,12.72266 5.79798,1.4792 10.4243,6.27936 11.39454,12.58594 l 0.78515,5.10742 c 1.1202,7.28136 -3.01498,14.10705 -9.5918,16.67383 3.64681,-0.1551 7.32467,0.84384 10.57618,3.24023 l 2.41797,1.7832 c 4.55611,3.3579 7.21827,8.65795 7.38281,13.9336 1.77277,-3.65654 5.31946,-6.3436 9.67383,-6.81836 l 6.74023,-0.73438 c 3.96683,-0.43251 7.67429,1.07498 10.20898,3.75586 0.35297,-1.10108 0.91506,-2.15726 1.70508,-3.10156 l 4.32032,-5.16211 c 1.85676,-2.21934 4.52432,-3.33821 7.19726,-3.29297 -0.56724,-0.88197 -0.98981,-1.87805 -1.20898,-2.96875 l -1.29688,-6.45117 c -0.39296,-1.95555 -0.0845,-3.87427 0.74219,-5.51758 -1.48556,0.0487 -2.99192,-0.45008 -4.19531,-1.52539 l -4.10547,-3.66992 c -2.48906,-2.22413 -2.71016,-6.02542 -0.4961,-8.52344 l 15.05665,-16.98633 c 2.21406,-2.49801 5.99922,-2.71826 8.48828,-0.49414 l 4.10546,3.66797 c 2.48908,2.22413 2.71017,6.02543 0.4961,8.52344 l -12.65625,14.28125 23.61914,-4.94922 c 4.64826,-0.97394 9.15615,2.05872 10.0918,6.71485 l 1.29687,6.45117 c 0.93564,4.65612 -2.06658,9.11979 -6.71484,10.09375 l -24.33789,5.09961 c -0.35376,0.0741 -0.70601,0.11773 -1.05664,0.14648 l 24.43554,20.44531 c 3.90122,3.26386 4.41621,9.03238 1.15235,12.9336 l -4.32032,5.16211 c -3.26386,3.90121 -9.03238,4.41425 -12.93359,1.15039 l -25.73828,-21.53516 4.61914,42.375 c 0.73426,6.73435 -4.09573,12.74816 -10.83008,13.48242 l -6.74023,0.73438 c -6.73435,0.73426 -12.74621,-4.09573 -13.48047,-10.83008 l -4.99414,-45.79492 c -0.006,-0.0532 -0.005,-0.1051 -0.01,-0.15821 -0.60064,1.42301 -1.42993,2.77639 -2.51562,4.00782 l -29.05274,32.95117 c -6.40521,7.26497 -16.64868,9.44737 -24.44531,3.70117 l -2.41797,-1.78125 c -7.79665,-5.7462 -10.1063,-17.18027 -3.70117,-24.44531 l 29.05273,-32.95313 c 2.25258,-2.55499 4.9834,-4.46473 7.91211,-5.63867 l -61.71156,6.42244 c -8.48714,0.88328 -16.26891,-4.44709 -17.5664,-12.88086 l -0.78516,-5.10742 c -1.29749,-8.43377 4.44709,-16.26891 12.88086,-17.56641 l 63.91469,-6.76033 -67.95778,-18.41286 c -8.71027,-1.69256 -14.36053,-10.06708 -12.66797,-18.77735 l 0.74609,-3.83984 c 1.48099,-7.62148 8.07742,-12.96485 15.53907,-12.96485 z"
         style="fill:#ffffff;fill-opacity:1;stroke:#aa0000;stroke-width:1.43522;stroke-miterlimit:4;stroke-dasharray:none;stroke-opacity:0" />
    </g>
  </g>
</svg>
